<?xml version="1.0" encoding="UTF-8" standalone="no"?>
<!-- Created with Inkscape (http://www.inkscape.org/) -->
<svg xmlns:svg="http://www.w3.org/2000/svg" xmlns="http://www.w3.org/2000/svg" version="1.0" width="796" height="580" id="svg1913">
  <g id="layer1">
    <path d="M -4.0406102,502.21825 L 72.730983,448.68017 L 26.263967,169.87807 L -3.0304576,174.92884" style="opacity:1;color:black;fill:none;stroke:black;stroke-width:2;stroke-linecap:round;stroke-linejoin:miter;stroke-miterlimit:100;stroke-dasharray:none;stroke-dashoffset:0;stroke-opacity:1;visibility:visible;display:inline;overflow:visible" id="path1982"/>
    <path d="M 76.771593,159.77654 L 577.80726,77.954185 L 601.04076,145.63441 C 601.04076,145.63441 556.59405,144.62425 534.3707,155.73593 C 512.14734,166.84761 122.22846,408.27407 122.22846,408.27407 L 76.771593,159.77654 z " style="opacity:1;color:black;fill:none;stroke:black;stroke-width:2;stroke-linecap:round;stroke-linejoin:miter;stroke-miterlimit:100;stroke-dasharray:none;stroke-dashoffset:0;stroke-opacity:1;visibility:visible;display:inline;overflow:visible" id="path2872"/>
    <path d="M -41.416254,598.18274 L 134.35029,474.94413 L 168.69548,514.34008 L 75.76144,588.08122" style="opacity:1;color:black;fill:#00a6ff;fill-opacity:1;fill-rule:nonzero;stroke:black;stroke-width:2;stroke-linecap:round;stroke-linejoin:miter;stroke-miterlimit:100;stroke-dasharray:none;stroke-dashoffset:0;stroke-opacity:1;visibility:visible;display:inline;overflow:visible" id="path2874"/>
    <path d="M 601.04076,193.11158 L 601.04076,193.11158 C 601.04076,193.11158 551.54329,198.16234 525.27933,214.32478 C 499.01536,230.48722 182.83761,443.62941 182.83761,443.62941 L 214.15234,479.9949 C 214.15234,479.9949 468.71078,307.25881 496.99505,304.22836 C 525.27932,301.1979 548.33717,295.44286 573.76664,298.16744 C 602.05092,301.1979 623.26412,292.10652 623.26412,292.10652 L 601.04076,193.11158 z " style="opacity:1;color:black;fill:#00a6ff;fill-opacity:1;fill-rule:nonzero;stroke:black;stroke-width:2;stroke-linecap:round;stroke-linejoin:miter;stroke-miterlimit:100;stroke-dasharray:none;stroke-dashoffset:0;stroke-opacity:1;visibility:visible;display:inline;overflow:visible" id="path2878"/>
    <path d="M 804.08143,237.55828 C 804.08143,237.55828 798.02051,242.60905 780.84792,255.74103 C 763.67532,268.87302 672.7616,283.01515 672.7616,283.01515 L 650.53824,188.06081 L 799.03066,161.79684" style="opacity:1;color:black;fill:#00a6ff;fill-opacity:1;fill-rule:nonzero;stroke:black;stroke-width:2;stroke-linecap:round;stroke-linejoin:miter;stroke-miterlimit:100;stroke-dasharray:none;stroke-dashoffset:0;stroke-opacity:1;visibility:visible;display:inline;overflow:visible" id="path2880"/>
    <path d="M 792.96975,48.659761 L 624.27427,71.89327 L 645.48748,141.5938 L 794.99005,118.36029" style="opacity:1;color:black;fill:none;stroke:black;stroke-width:2;stroke-linecap:round;stroke-linejoin:miter;stroke-miterlimit:100;stroke-dasharray:none;stroke-dashoffset:0;stroke-opacity:1;visibility:visible;display:inline;overflow:visible" id="path2882"/>
    <path d="M -4.0406102,121.39074 L 25.253814,114.31968 L -1.0101525,42.598846" style="opacity:1;color:black;fill:none;stroke:black;stroke-width:2;stroke-linecap:round;stroke-linejoin:miter;stroke-miterlimit:100;stroke-dasharray:none;stroke-dashoffset:0;stroke-opacity:1;visibility:visible;display:inline;overflow:visible" id="path2884"/>
    <path d="M 32.324881,-1.8478661 L 74.751288,99.167388 L 557.60421,27.446558 L 546.49253,-3.8681712" style="opacity:1;color:black;fill:none;stroke:black;stroke-width:2;stroke-linecap:round;stroke-linejoin:miter;stroke-miterlimit:100;stroke-dasharray:none;stroke-dashoffset:0;stroke-opacity:1;visibility:visible;display:inline;overflow:visible" id="path2886"/>
    <path d="M 600.03061,-0.83771358 L 610.13214,23.405948 L 801.05097,0.17243897" style="opacity:1;color:black;fill:none;stroke:black;stroke-width:2;stroke-linecap:round;stroke-linejoin:miter;stroke-miterlimit:100;stroke-dasharray:none;stroke-dashoffset:0;stroke-opacity:1;visibility:visible;display:inline;overflow:visible" id="path2888"/>
    <path d="M 1.0101525,530.50253 L 506.08643,195.13188 C 506.08643,195.13188 549.52298,166.84761 568.71588,166.84761 C 587.90878,166.84761 621.24382,170.88822 664.68037,165.83745 C 710.01105,160.56645 805.09158,144.62425 805.09158,144.62425" style="opacity:1;color:black;fill:none;stroke:red;stroke-width:2;stroke-linecap:round;stroke-linejoin:miter;stroke-miterlimit:100;stroke-dasharray:8, 8;stroke-dashoffset:0;stroke-opacity:1;visibility:visible;display:inline;overflow:visible" id="path2890"/>
    <path d="M 628.31488,145.63441 L 644.47732,157.75624 L 796.00021,130.48212" style="opacity:1;color:black;fill:none;stroke:black;stroke-width:2;stroke-linecap:round;stroke-linejoin:miter;stroke-miterlimit:100;stroke-dasharray:8, 8;stroke-dashoffset:0;stroke-opacity:1;visibility:visible;display:inline;overflow:visible" id="path3777"/>
    <path d="M -19.724703,203.71479 L -35.985609,180.80179 L -47.251369,221.18788 L -65.340721,178.78787 L -90.273072,194.68449 L -89.175158,173.13801 L -111.86551,163.62137 L -101.99375,153.42448 L -132.81573,135.15685 L -98.149366,112.4977 L -124.71775,96.337933 L -75.820097,97.132084 L -90.743239,67.639488 L -55.015117,79.189938 L -62.648275,60.964662 L -40.265654,84.388465 L -23.983102,55.256459 L -14.5041,95.567839 L 15.20863,82.638894 L 0.1578668,100.42826 L 30.468074,109.36411 L 8.0725594,131.04092 L 37.064988,156.51177 L 5.9746498,161.27674 L 9.1809236,192.25836 L -22.976096,178.45702 L -19.724703,203.71479 z " transform="matrix(0.241896,0,0,0.241686,153.8704,403.5363)" style="opacity:1;color:black;fill:yellow;fill-opacity:1;fill-rule:nonzero;stroke:black;stroke-width:8.27159786;stroke-linecap:round;stroke-linejoin:miter;stroke-miterlimit:100;stroke-dasharray:none;stroke-dashoffset:0;stroke-opacity:1;visibility:visible;display:inline;overflow:visible" id="path4668"/>
    <switch style="font-size:18.00000763px;font-weight:normal;opacity:1;color:black;fill:black;fill-opacity:1;fill-rule:nonzero;stroke:none;visibility:visible;display:inline;overflow:visible;font-family:Arial, sans-serif"><text x="198.1768" y="135.30281" transform="matrix(0.990752,-0.135688,0.135688,0.990752,0,0)" style="font-size:18.00000763px;font-weight:normal;opacity:1;color:black;fill:black;fill-opacity:1;fill-rule:nonzero;stroke:none;visibility:visible;display:inline;overflow:visible;font-family:Arial, sans-serif" id="text5555-it" xml:space="preserve" systemLanguage="it"><tspan x="198.1768" y="135.30281" id="tspan5557-it">Via Frans Josef</tspan></text><text x="198.1768" y="135.30281" transform="matrix(0.990752,-0.135688,0.135688,0.990752,0,0)" style="font-size:18.00000763px;font-weight:normal;opacity:1;color:black;fill:black;fill-opacity:1;fill-rule:nonzero;stroke:none;visibility:visible;display:inline;overflow:visible;font-family:Arial, sans-serif" id="text5555" xml:space="preserve"><tspan x="198.1768" y="135.30281" id="tspan5557">Frans Josef Street</tspan></text></switch>
    <switch style="font-size:18px;font-weight:normal;opacity:1;color:black;fill:black;fill-opacity:1;fill-rule:nonzero;stroke:none;stroke-width:2;stroke-linecap:round;stroke-linejoin:miter;stroke-miterlimit:100;stroke-dasharray:none;stroke-dashoffset:0;stroke-opacity:1;visibility:visible;display:inline;overflow:visible;font-family:Arial"><text x="90.101448" y="379.35184" transform="matrix(0.862997,-0.505209,0.505209,0.862997,0,0)" style="font-size:18px;font-weight:normal;opacity:1;color:black;fill:black;fill-opacity:1;fill-rule:nonzero;stroke:none;stroke-width:2;stroke-linecap:round;stroke-linejoin:miter;stroke-miterlimit:100;stroke-dasharray:none;stroke-dashoffset:0;stroke-opacity:1;visibility:visible;display:inline;overflow:visible;font-family:Arial" id="text6444-it" xml:space="preserve" systemLanguage="it"><tspan x="90.101448" y="379.35184" id="tspan6446-it">Quay Appel</tspan></text><text x="90.101448" y="379.35184" transform="matrix(0.862997,-0.505209,0.505209,0.862997,0,0)" style="font-size:18px;font-weight:normal;opacity:1;color:black;fill:black;fill-opacity:1;fill-rule:nonzero;stroke:none;stroke-width:2;stroke-linecap:round;stroke-linejoin:miter;stroke-miterlimit:100;stroke-dasharray:none;stroke-dashoffset:0;stroke-opacity:1;visibility:visible;display:inline;overflow:visible;font-family:Arial" id="text6444" xml:space="preserve"><tspan x="90.101448" y="379.35184" id="tspan6446">Appel Quay</tspan></text></switch>
    <switch style="font-size:17.99997902px;font-weight:normal;opacity:1;color:black;fill:black;fill-opacity:1;fill-rule:nonzero;stroke:none;stroke-width:2;stroke-linecap:round;stroke-linejoin:miter;stroke-miterlimit:100;stroke-dasharray:none;stroke-dashoffset:0;stroke-opacity:1;visibility:visible;display:inline;overflow:visible;font-family:Arial"><text x="-183.63242" y="542.3103" transform="matrix(0.810132,-0.586247,0.586247,0.810132,0,0)" style="font-size:17.99997902px;font-weight:normal;opacity:1;color:black;fill:black;fill-opacity:1;fill-rule:nonzero;stroke:none;stroke-width:2;stroke-linecap:round;stroke-linejoin:miter;stroke-miterlimit:100;stroke-dasharray:none;stroke-dashoffset:0;stroke-opacity:1;visibility:visible;display:inline;overflow:visible;font-family:Arial" id="text6448-it" xml:space="preserve" systemLanguage="it"><tspan x="-183.63242" y="542.3103" id="tspan6450-it">Ponte Cumurja</tspan></text><text x="-183.63242" y="542.3103" transform="matrix(0.810132,-0.586247,0.586247,0.810132,0,0)" style="font-size:17.99997902px;font-weight:normal;opacity:1;color:black;fill:black;fill-opacity:1;fill-rule:nonzero;stroke:none;stroke-width:2;stroke-linecap:round;stroke-linejoin:miter;stroke-miterlimit:100;stroke-dasharray:none;stroke-dashoffset:0;stroke-opacity:1;visibility:visible;display:inline;overflow:visible;font-family:Arial" id="text6448" xml:space="preserve"><tspan x="-183.63242" y="542.3103" id="tspan6450">Cumurja Bridge</tspan></text></switch>
    <switch style="font-size:17.99999619px;font-weight:normal;opacity:1;color:black;fill:black;fill-opacity:1;fill-rule:nonzero;stroke:none;stroke-width:2;stroke-linecap:round;stroke-linejoin:miter;stroke-miterlimit:100;stroke-dasharray:none;stroke-dashoffset:0;stroke-opacity:1;visibility:visible;display:inline;overflow:visible;font-family:Arial"><text x="170.68781" y="500.25772" transform="matrix(0.840502,-0.541808,0.541808,0.840502,0,0)" style="font-size:17.99999619px;font-weight:normal;opacity:1;color:black;fill:black;fill-opacity:1;fill-rule:nonzero;stroke:none;stroke-width:2;stroke-linecap:round;stroke-linejoin:miter;stroke-miterlimit:100;stroke-dasharray:none;stroke-dashoffset:0;stroke-opacity:1;visibility:visible;display:inline;overflow:visible;font-family:Arial" id="text6452-it" xml:space="preserve" systemLanguage="it"><tspan x="170.68781" y="500.25772" id="tspan6454-it">Fiume Miljacka</tspan></text><text x="170.68781" y="500.25772" transform="matrix(0.840502,-0.541808,0.541808,0.840502,0,0)" style="font-size:17.99999619px;font-weight:normal;opacity:1;color:black;fill:black;fill-opacity:1;fill-rule:nonzero;stroke:none;stroke-width:2;stroke-linecap:round;stroke-linejoin:miter;stroke-miterlimit:100;stroke-dasharray:none;stroke-dashoffset:0;stroke-opacity:1;visibility:visible;display:inline;overflow:visible;font-family:Arial" id="text6452" xml:space="preserve"><tspan x="170.68781" y="500.25772" id="tspan6454">River Miljacka</tspan></text></switch>
    <switch style="font-size:17.99999619px;font-weight:normal;opacity:1;color:black;fill:black;fill-opacity:1;fill-rule:nonzero;stroke:none;stroke-width:2;stroke-linecap:round;stroke-linejoin:miter;stroke-miterlimit:100;stroke-dasharray:none;stroke-dashoffset:0;stroke-opacity:1;visibility:visible;display:inline;overflow:visible;font-family:Arial"><text x="533.45691" y="442.09528" transform="matrix(0.977656,-0.21021,0.21021,0.977656,0,0)" style="font-size:17.99999619px;font-weight:normal;opacity:1;color:black;fill:black;fill-opacity:1;fill-rule:nonzero;stroke:none;stroke-width:2;stroke-linecap:round;stroke-linejoin:miter;stroke-miterlimit:100;stroke-dasharray:none;stroke-dashoffset:0;stroke-opacity:1;visibility:visible;display:inline;overflow:visible;font-family:Arial" id="text7341-it" xml:space="preserve" systemLanguage="it"><tspan x="533.45691" y="442.09528" id="tspan7343-it">Ponte Lateiner</tspan></text><text x="533.45691" y="442.09528" transform="matrix(0.977656,-0.21021,0.21021,0.977656,0,0)" style="font-size:17.99999619px;font-weight:normal;opacity:1;color:black;fill:black;fill-opacity:1;fill-rule:nonzero;stroke:none;stroke-width:2;stroke-linecap:round;stroke-linejoin:miter;stroke-miterlimit:100;stroke-dasharray:none;stroke-dashoffset:0;stroke-opacity:1;visibility:visible;display:inline;overflow:visible;font-family:Arial" id="text7341" xml:space="preserve"><tspan x="533.45691" y="442.09528" id="tspan7343">Lateiner Bridge</tspan></text></switch>
    <switch style="font-size:18px;font-weight:normal;opacity:1;color:black;fill:black;fill-opacity:1;fill-rule:nonzero;stroke:none;stroke-width:2;stroke-linecap:round;stroke-linejoin:miter;stroke-miterlimit:100;stroke-dasharray:none;stroke-dashoffset:0;stroke-opacity:1;visibility:visible;display:inline;overflow:visible;font-family:Arial"><text x="656.59314" y="154.27649" transform="matrix(0.995232,-9.753621e-2,9.753621e-2,0.995232,0,0)" style="font-size:18px;font-weight:normal;opacity:1;color:black;fill:black;fill-opacity:1;fill-rule:nonzero;stroke:none;stroke-width:2;stroke-linecap:round;stroke-linejoin:miter;stroke-miterlimit:100;stroke-dasharray:none;stroke-dashoffset:0;stroke-opacity:1;visibility:visible;display:inline;overflow:visible;font-family:Arial" id="text7345-it" xml:space="preserve" systemLanguage="it"><tspan x="656.59314" y="154.27649" id="tspan7347-it">Schiller</tspan></text><text x="656.59314" y="154.27649" transform="matrix(0.995232,-9.753621e-2,9.753621e-2,0.995232,0,0)" style="font-size:18px;font-weight:normal;opacity:1;color:black;fill:black;fill-opacity:1;fill-rule:nonzero;stroke:none;stroke-width:2;stroke-linecap:round;stroke-linejoin:miter;stroke-miterlimit:100;stroke-dasharray:none;stroke-dashoffset:0;stroke-opacity:1;visibility:visible;display:inline;overflow:visible;font-family:Arial" id="text7345" xml:space="preserve"><tspan x="656.59314" y="154.27649" id="tspan7347">Schiller's</tspan></text></switch>
    <path d="M 635.06438,107.34648 L 645.48748,141.5938 L 686.32027,135.24816 L 677.81236,102.19785 L 635.06438,107.34648 z " style="opacity:1;color:black;fill:black;fill-opacity:1;fill-rule:nonzero;stroke:none;stroke-width:2;stroke-linecap:round;stroke-linejoin:miter;stroke-miterlimit:100;stroke-dasharray:none;stroke-dashoffset:0;stroke-opacity:1;visibility:visible;display:inline;overflow:visible" id="path7349"/>
    <path d="M 612.78125,84.53125 C 607.43659,84.259853 601.82253,87.272303 599.90443,92.423547 C 598.78181,94.988144 598.68195,98.031471 600.08017,100.51341 C 601.37114,102.08705 601.13143,103.83637 600.64037,105.66706 C 600.54577,107.836 602.45424,109.19064 603.36408,110.93367 C 604.13144,112.6697 600.89572,110.49466 599.84802,110.53505 C 598.23739,110.02102 596.67369,109.33365 595.21532,108.52862 C 592.96024,108.2126 593.67602,111.12167 592.625,112.28125 C 592.72325,114.74801 595.48613,113.07205 596.75,113.625 C 599.47814,114.3088 602.17254,115.12123 604.84375,116 C 605.24573,117.92893 601.77082,117.42869 600.61112,118.35082 C 598.93723,119.21131 597.36031,119.31507 595.59375,119.5625 C 594.58474,120.89632 595.8155,123.16237 596.98075,124.02802 C 598.59021,124.66915 599.45878,122.3461 601.066,122.28393 C 602.89817,121.5747 604.73033,120.86548 606.5625,120.15625 C 609.31156,123.92957 615.35907,124.36229 618.69842,121.12075 C 619.27817,119.98007 620.28992,121.00553 621.13699,121.18647 C 622.91772,121.84325 624.5471,122.54918 626.31784,123.22122 C 627.44705,124.86425 630.51443,124.69032 630.21875,122.28125 C 631.98411,120.81884 630.25683,118.64033 628.35287,119.774 C 625.97019,119.78357 623.83244,118.30366 621.625,117.71875 C 620.85178,117.30815 621.88877,115.63805 622.2546,115.15269 C 624.13722,114.47972 625.84775,113.06198 627.89966,113.04872 C 629.38169,113.08155 632.05614,114.79058 632.59376,112.56246 C 632.43221,111.34165 631.78449,110.05711 631.4282,108.73049 C 630.05291,107.27381 628.4099,108.98623 626.89274,109.39682 C 625.50558,109.73969 623.4071,111.0308 622.51167,110.98912 C 623.14519,109.42279 625.08964,108.4499 624.79999,106.49923 C 623.63497,104.38429 625.25948,102.62843 625.78055,100.5554 C 627.02867,96.444047 626.40789,91.441406 623.06982,88.462858 C 620.32584,85.866371 616.51083,84.621334 612.78125,84.53125 z M 612.78125,86.15625 C 617.48097,86.209686 622.69991,88.475836 624.38376,93.178169 C 625.31657,96.133791 624.82573,99.402808 623.5625,102.1875 C 622.82298,100.08665 623.93383,98.037109 624.1875,95.96875 C 624.5954,94.803096 622.43347,91.265793 622.0625,93.625 C 623.29689,95.489088 622.32142,97.497598 621.9117,99.414997 C 621.4145,101.74667 622.56069,103.92081 623.0625,106.125 C 623.15318,108.32133 619.92826,108.33074 619.43985,110.37343 C 619.50215,112.42352 617.08275,111.42953 616,112.71875 C 614.70047,112.40775 613.65917,113.73382 612.1875,113.25 C 611.12519,113.06705 610.17557,112.95038 609.0625,112.40625 C 608.21444,111.73241 607.20264,112.78299 607.32394,111.16025 C 606.93041,108.99345 604.64068,108.52935 603.0704,107.56431 C 601.3622,106.14337 602.41982,103.87504 603.05381,102.20755 C 604.00757,100.14799 602.98421,97.967107 603.03093,95.853658 C 603.51641,94.989678 603.38845,92.804428 602.05356,93.983713 C 601.2539,95.665972 601.88102,97.591514 601.84537,99.404797 C 601.89195,101.45318 600.78206,98.104402 600.73361,97.352875 C 600.37466,93.358906 602.83998,89.361394 606.46934,87.698306 C 608.42829,86.733905 610.60729,86.255071 612.78125,86.15625 z M 618.375,99.625 C 616.79368,99.617852 614.72155,100.46079 614.71875,102.25 C 614.95792,103.23778 615.22863,104.16167 615.91879,104.9905 C 617.10069,106.2476 619.18254,107.39066 620.54934,105.56337 C 621.92894,104.07051 622.54517,100.66428 620.27042,99.746046 C 619.65349,99.580688 619.00686,99.624489 618.375,99.625 z M 609.125,99.90625 C 607.95405,99.968038 606.87778,100.25103 605.90625,100.78125 C 605.36592,101.16987 604.82534,101.89122 604.84375,102.5625 C 604.45028,104.32427 606.03125,105.88294 607.51013,106.56341 C 609.75143,107.39057 611.14606,104.8169 611.78125,103.09375 C 612.51236,101.30302 610.72831,99.989001 609.125,99.90625 z M 612.71875,104.78125 C 611.31253,105.12792 610.6146,106.8212 610.13276,108.16177 C 609.257,109.83351 611.12408,111.902 612.75,110.59375 C 614.71097,112.30676 616.26054,109.75359 615.4184,107.95789 C 615.12987,106.59241 614.36337,104.5919 612.71875,104.78125 z M 630.25,109.6875 C 630.18376,110.26238 631.14113,111.9009 630.84375,112.03125 C 629.17848,111.28207 627.11754,110.85579 625.49053,111.91014 C 624.34785,112.46093 623.20518,113.01171 622.0625,113.5625 C 622.07493,112.8049 623.18435,112.83836 623.6875,112.4375 C 625.40819,111.63684 627.21098,111.01629 628.90625,110.15625 C 629.38527,110.10626 629.82799,109.90759 630.25,109.6875 z M 594.8125,110.15625 C 597.07563,111.65633 599.82385,112.0388 602.33593,112.97062 C 603.2475,112.78045 605.24527,114.53347 603.59375,114 C 602.09533,113.62815 600.60886,113.08546 599.09375,112.75 C 597.79537,112.00728 595.38618,111.82934 594.65625,111.84375 C 595.20012,111.31281 594.68375,110.76936 594.8125,110.15625 z M 604.75,110.15625 C 606.54859,111.41163 606.17365,113.89276 606.80665,115.7238 C 607.36684,116.9536 609.22267,117.31323 609.89296,117.90103 C 611.18214,118.27228 612.52497,118.29484 613.89626,118.4421 C 615.2065,118.07097 616.60811,118.03929 617.71875,117.25 C 618.87453,116.58661 619.76659,115.85925 620.40625,114.75 C 620.43436,113.49761 620.25376,112.22463 620.90625,111.09375 C 620.29638,113.21518 620.84372,115.58902 619.63567,117.55669 C 618.0506,121.15718 613.2931,123.09759 609.78979,121.03437 C 606.79052,119.40235 606.04356,115.7559 605.50317,112.67485 C 605.31917,111.81705 605.06619,110.97459 604.75,110.15625 z M 611.6875,114.875 C 611.7677,115.07129 611.63683,114.9488 611.6875,114.875 z M 614.6875,115.84375 C 614.65071,116.2382 614.50059,117.27707 614.9375,116.9375 C 614.92914,117.6633 615.52643,115.27035 614.6875,115.84375 z M 611.96875,116.09375 C 611.64455,116.64576 612.22681,116.88844 612.02777,117.12848 C 612.14493,117.77772 612.68171,116.26821 612.46875,115.9808 C 612.60034,115.40082 612.15482,116.04005 611.96875,116.09375 z M 613.78125,116.1875 C 613.37744,116.52985 612.84054,116.73671 613.42545,117.28125 C 614.25869,117.44822 613.31225,116.59286 613.78125,116.1875 z M 605.59375,118.21875 C 606.27925,119.08459 604.84833,119.17963 604.30138,119.4482 C 602.31537,120.2145 600.17422,120.67362 598.40625,121.9375 C 597.23808,123.31871 597.34185,121.53114 596.875,120.75 C 598.24131,121.17096 599.46761,120.20398 600.76436,119.89562 C 602.37415,119.33667 603.98395,118.77771 605.59375,118.21875 z M 620.71875,118.75 C 622.74318,119.54064 624.76601,120.46507 626.78566,121.16636 C 627.62227,121.68353 629.57272,120.57823 628.75986,121.99067 C 628.2356,123.68845 626.22317,120.82291 624.83465,121.08146 C 623.30224,120.65081 621.84313,119.9403 620.40625,119.25 L 620.55488,119.00316 L 620.71875,118.75 z " style="font-style:normal;font-variant:normal;font-weight:normal;font-stretch:normal;letter-spacing:normal;word-spacing:normal;text-anchor:start;fill:black;fill-opacity:1;fill-rule:evenodd;stroke:none;stroke-width:1;stroke-linecap:butt;stroke-linejoin:miter;stroke-miterlimit:10.43299961;stroke-dasharray:none;stroke-dashoffset:0;stroke-opacity:1" id="path2909"/>
  </g>
</svg>
